/* XPM */
static char *_4ccc92bd0344146f03a8e3c1fa9638fVpZpoft7KJlvMEAk[] = {
/* columns rows colors chars-per-pixel */
"50 50 7 1 ",
"  c black",
". c #81663F",
"X c #D47636",
"o c #937448",
"O c #AC8C3E",
"+ c #FBAF3C",
"@ c #FFE95F",
/* pixels */
"..................................................",
"..................................................",
"..................................................",
"...OOOOOOOOOOOOOOOOOOOOOOOOOOOOOOOOOOOOOOOOOOOO...",
"...OOOOOOOOOOOOOOOOOOOOOOOOOOOOOOOOOOOOOOOOOOOO...",
"...OOOOOOOOOOOOOOOOOOOOOOOOOOOOOOOOOOOOOOOOOOOO...",
"...OOOOOOOOOOOOOOOOOOOOOOOOOOOOOOOOOOOOOOOOOOOO...",
"...OOOOOOOOOOOOOOOOOOOOOOOOOOOOOOOOOOOOOOOOOOOO...",
"...OOOOOOOOOOOOOOOOOOOOOOOOOOOOOOOOOOOOOOOOOOOO...",
"...oooooooooooooooooooooooooooooooooooooooooooo...",
"...oooooooooooooooooooooooooooooooooooooooooooo...",
"...oooooooooooooooooooooooooooooooooooooooooooo...",
"...oooooooooooooooooooooooooooooooooooooooooooo...",
"...oooooooooooooooo           ooooooooooooooooo...",
"...ooooooooooooooo XX+++@@++++ oooooooooooooooo...",
"...OOOOOOOOOOOOOO XX++++@@++++@ OOOOOOOOOOOOOOO...",
"...OOOOOOOOOOOOOO XX+++  X++++@ OOOOOOOOOOOOOOO...",
"...OOOOOOOOOOOOOO XX++ OO X+++@ OOOOOOOOOOOOOOO...",
"...OOOOOOOOOOOOOO XX++ OO X+++@ OOOOOOOOOOOOOOO...",
"...OOOOOOOOOOOOOO XX+++  X++++@ OOOOOOOOOOOOOOO...",
"...OOOOOOOOOOOOOO XX++++@@++++@ OOOOOOOOOOOOOOO...",
"...oooooooooooooo XX++++@@++++@ ooooooooooooooo...",
"...ooooooooooooooo XX+++@@++++ oooooooooooooooo...",
"...oooooooooooooooo   X+@@+   ooooooooooooooooo...",
"...ooooooooooooooooooo XXX oooooooooooooooooooo...",
"...ooooooooooooooooooo XX+ oooooooooooooooooooo...",
"...ooooooooooooooooooo XX@ oooooooooooooooooooo...",
"...OOOOOOOOOOOOOOOOOOO XX@ OOOOOOOOOOOOOOOOOOOO...",
"...OOOOOOOOOOOOOOOOOOO XX@X  OOOOOOOOOOOOOOOOOO...",
"...OOOOOOOOOOOOOOOOOOO XX@X@@ OOOOOOOOOOOOOOOOO...",
"...OOOOOOOOOOOOOOOOOOO XX+X+ OOOOOOOOOOOOOOOOOO...",
"...OOOOOOOOOOOOOOOOOOO XX+++@ OOOOOOOOOOOOOOOOO...",
"...OOOOOOOOOOOOOOOOOOO XX+X+ OOOOOOOOOOOOOOOOOO...",
"...ooooooooooooooooooo XX@X+@ ooooooooooooooooo...",
"...ooooooooooooooooooo XX@X++ ooooooooooooooooo...",
"...oooooooooooooooooooo      oooooooooooooooooo...",
"...oooooooooooooooooooooooooooooooooooooooooooo...",
"...oooooooooooooooooooooooooooooooooooooooooooo...",
"...oooooooooooooooooooooooooooooooooooooooooooo...",
"...oooooooooooooooooooooooooooooooooooooooooooo...",
"...OOOOOOOOOOOOOOOOOOOOOOOOOOOOOOOOOOOOOOOOOOOO...",
"...OOOOOOOOOOOOOOOOOOOOOOOOOOOOOOOOOOOOOOOOOOOO...",
"...OOOOOOOOOOOOOOOOOOOOOOOOOOOOOOOOOOOOOOOOOOOO...",
"...OOOOOOOOOOOOOOOOOOOOOOOOOOOOOOOOOOOOOOOOOOOO...",
"...OOOOOOOOOOOOOOOOOOOOOOOOOOOOOOOOOOOOOOOOOOOO...",
"...OOOOOOOOOOOOOOOOOOOOOOOOOOOOOOOOOOOOOOOOOOOO...",
"...OOOOOOOOOOOOOOOOOOOOOOOOOOOOOOOOOOOOOOOOOOOO...",
"..................................................",
"..................................................",
".................................................."
};
