/* XPM */
static char *_7a18ad507f54a0bc6e61d958c392b24WrP2u0FKhKbA2Jiy[] = {
/* columns rows colors chars-per-pixel */
"50 50 9 1 ",
"  c black",
". c gray20",
"X c #8F563B",
"o c #81663F",
"O c #937448",
"+ c #D95763",
"@ c #AC8C3E",
"# c #EEC39A",
"$ c gray85",
/* pixels */
"oooooooooooooooooooooooooooooooooooooooooooooooooo",
"oooooooooooooooooooooooooooooooooooooooooooooooooo",
"ooooooooooooooooooooXXoooooooooooooooooooooooooooo",
"ooo@@@@@@@@@@@@@@@@@XX@@@@@@@@@@@@@@@@@@@@@@@@@ooo",
"ooo@@@@@@@@@@@@@@@XXXXXXXXXXXX@@@@@@@@@@@@@@@@@ooo",
"ooo@@@@@@@@@@@@@@@XXXXXXXXXXXX@@@@@@@@@@@@@@@@@ooo",
"ooo@@@@@@@@@@@@@XXXXXXXXXXXXXXXX@@@@@@@@@@@@@@@ooo",
"ooo@@@@@@@@@@@@@XXXXXXXXXXXXXXXX@@@@@@@@@@@@@@@ooo",
"ooo@@@@@@@@@@@@@############XXXX@@@@@@@@@@@@@@@ooo",
"oooOOOOOOOOOOOOO############XXXXOOOOOOOOOOOOOOOooo",
"oooOOOOOOOOOOOOO##  ####  ####XXOOOOOOOOOOOOOOOooo",
"oooOOOOOOOOOOOOO##  ####  ####XXOOOOOOOOOOOOOOOooo",
"oooOOOOOOOOOOOOO################OOOOOOOOOOOOOOOooo",
"oooOOOOOOOOOOOOO################OOOOOOOOOOOOOOOooo",
"oooOOOOOOOOOOOOO####+++++#######OOOOOOOOOOOOOOOooo",
"ooo@@@@@@@@@@@@@####+++++#######@@@@@@@@@@@@@@@ooo",
"ooo@@@@@@@@@@@@@@@############@@@@@@@@@@@@@@@@@ooo",
"ooo@@@@@@@@@@@@@@@############@@@@@@@@@@@@@@@@@ooo",
"ooo@@@@@@@@@@@@@@@@@#########@@@@@@@@@@@@@@@@@@ooo",
"ooo@@@@@@@@@@@@@@@@@#########@@@@@@@@@@@@@@@@@@ooo",
"ooo@@@@@@@@@@@@@......######......@@@@@@@@@@@@@ooo",
"oooOOOOOOOOOOOOO......######......OOOOOOOOOOOOOooo",
"oooOOOOOOOOOOOOO..................OOOOOOOOOOOOOooo",
"oooOOOOOOOOOOOOO..................OOOOOOOOOOOOOooo",
"oooOOOOOOOOOOOOO..................OOOOOOOOOOOOOooo",
"oooOOOOOOOOOOOOO..................OOOOOOOOOOOOOooo",
"oooOOOOOOOOOOOOO####..........####OOOOOOOOOOOOOooo",
"ooo@@@@@@@@@@@@@####..........####@@@@@@@@@@@@@ooo",
"ooo@@@@@@@@@@@@@####..........####@@@@@@@@@@@@@ooo",
"ooo@@@@@@@@@@@@@####..........####@@@@@@@@@@@@@ooo",
"ooo@@@@@@@@@@@@@####..........####@@@@@@@@@@@@@ooo",
"ooo@@@@@@@@@@@@@####..........####@@@@@@@@@@@@@ooo",
"ooo@@@@@@@@@@@@@####..........####@@@@@@@@@@@@@ooo",
"oooOOOOOOOOOOOOO####..........####OOOOOOOOOOOOOooo",
"oooOOOOOOOOOOOOOOOOO$$$$OO$$$$OOOOOOOOOOOOOOOOOooo",
"oooOOOOOOOOOOOOOOOOO$$$$OO$$$$OOOOOOOOOOOOOOOOOooo",
"oooOOOOOOOOOOOOOOOOO$$$$OO$$$$OOOOOOOOOOOOOOOOOooo",
"oooOOOOOOOOOOOOOOOOO$$$$OO$$$$OOOOOOOOOOOOOOOOOooo",
"oooOOOOOOOOOOOOOOOOO$$$$OO$$$$OOOOOOOOOOOOOOOOOooo",
"oooOOOOOOOOOOOOOOOOO$$$$OO$$$$OOOOOOOOOOOOOOOOOooo",
"ooo@@@@@@@@@@@@@@@@@$$$$@@$$$$@@@@@@@@@@@@@@@@@ooo",
"ooo@@@@@@@@@@@@@@@@@$$$$@@$$$$@@@@@@@@@@@@@@@@@ooo",
"ooo@@@@@@@@@@@@@@@@@$$$$@@$$$$@@@@@@@@@@@@@@@@@ooo",
"ooo@@@@@@@@@@@@@@@@@$$$$@@$$$$@@@@@@@@@@@@@@@@@ooo",
"ooo@@@@@@@@@@@@@@@@@$$$$@@$$$$@@@@@@@@@@@@@@@@@ooo",
"ooo@@@@@@@@@@@@@@@@@$$$$@@$$$$@@@@@@@@@@@@@@@@@ooo",
"ooo@@@@@@@@@@@@@@@@     @     @@@@@@@@@@@@@@@@@ooo",
"ooooooooooooooooooo     o     oooooooooooooooooooo",
"oooooooooooooooooooooooooooooooooooooooooooooooooo",
"oooooooooooooooooooooooooooooooooooooooooooooooooo"
};
