/* XPM */
static char *_f21bb24cd8146e3bb174d2070a45e5e[] = {
/* columns rows colors chars-per-pixel */
"50 50 8 1 ",
"  c black",
". c gray20",
"X c #8F563B",
"o c #D95763",
"O c #9B9B9B",
"+ c #B2B2B2",
"@ c #EEC39A",
"# c gray85",
/* pixels */
"OOOOOOOOOOOOOOOOOOOOOOOOOOOOOOOOOOOOOOOOOOOOOOOOOO",
"OOOOOOOOOOOOOOOOOOOOOOOOOOOOOOOOOOOOOOOOOOOOOOOOOO",
"OOOOOOOOOOOOOOOOOOOOXXOOOOOOOOOOOOOOOOOOOOOOOOOOOO",
"OOO+++++++++++++++++XX+++++++++++++++++++++++++OOO",
"OOO+++++++++++++++XXXXXXXXXXXX+++++++++++++++++OOO",
"OOO+++++++++++++++XXXXXXXXXXXX+++++++++++++++++OOO",
"OOO+++++++++++++XXXXXXXXXXXXXXXX+++++++++++++++OOO",
"OOO+++++++++++++XXXXXXXXXXXXXXXX+++++++++++++++OOO",
"OOO+++++++++++++@@@@@@@@@@@@XXXX+++++++++++++++OOO",
"OOO+++++++++++++@@@@@@@@@@@@XXXXOOOOO++++++++++OOO",
"OOO+++++++++++++@@  @@@@  @@@@XXOOOOO++++++++++OOO",
"OOO+++++++++++++@@  @@@@  @@@@XXOOOOO++++++++++OOO",
"OOO+++++++++++OO@@@@@@@@@@@@@@@@+++++++++++++++OOO",
"OOO+++++++++++OO@@@@@@@@@@@@@@@@+++++++++++++++OOO",
"OOO+++++++++++OO@@@@ooooo@@@@@@@+++++++++++++++OOO",
"OOO+++++++++++OO@@@@ooooo@@@@@@@+++++++++++++++OOO",
"OOO+++++++++++OOO+@@@@@@@@@@@@+++++++++++++++++OOO",
"OOO+++++++++++OOO+@@@@@@@@@@@@+++++++++++++++++OOO",
"OOO+++++++++++OOO+++@@@@@@@@@++++++++++++++++++OOO",
"OOO+++++++++++OOO+++@@@@@@@@@++++++++++++++++++OOO",
"OOO+++++++++++OO......@@@@@@......+++++++++++++OOO",
"OOO+++++++++++OO......@@@@@@......+++++++++++++OOO",
"OOO+++++++++++OO..................+++++++++++++OOO",
"OOO+++++++++++OO..................+++++++++++++OOO",
"OOO+++++++++++++..................+++++++++++++OOO",
"OOO+++++++++++++..................+++++++++++++OOO",
"OOO+++++++++++++@@@@..........@@@@+++++++++++++OOO",
"OOO+++++++++++++@@@@..........@@@@OOO++++++++++OOO",
"OOO+++++++++++++@@@@..........@@@@OOO++++++++++OOO",
"OOO+++++++++++++@@@@..........@@@@OOO++++++++++OOO",
"OOO+++++++++++++@@@@..........@@@@OOO++++++++++OOO",
"OOO+++++++++++++@@@@..........@@@@OOO++++++++++OOO",
"OOO+++++++++++++@@@@..........@@@@OOO++++++++++OOO",
"OOO+++++++++++++@@@@..........@@@@OOO++++++++++OOO",
"OOO+++++++++++++++++####++####++++OOO++++++++++OOO",
"OOO+++++++++++++++++####++####++++OOO++++++++++OOO",
"OOO+++++++++++++++++####++####++++OOO++++++++++OOO",
"OOO+++++++++++++++++####++####++++OOO++++++++++OOO",
"OOO+++++++++++++++++####++####++++OOO++++++++++OOO",
"OOO+++++++++++++OOOO####OO####OOOO+++++++++++++OOO",
"OOO+++++++++++++OOOO####OO####OOOO+++++++++++++OOO",
"OOO+++++++++++++OOOO####OO####OOOO+++++++++++++OOO",
"OOO+++++++++++++++++####++####+++++++++++++++++OOO",
"OOO+++++++++++++++++####++####+++++++++++++++++OOO",
"OOO+++++++++++++++++####++####+++++++++++++++++OOO",
"OOO+++++++++++++++++####++####+++++++++++++++++OOO",
"OOO++++++++++++++++     +     +++++++++++++++++OOO",
"OOOOOOOOOOOOOOOOOOO     O     OOOOOOOOOOOOOOOOOOOO",
"OOOOOOOOOOOOOOOOOOOOOOOOOOOOOOOOOOOOOOOOOOOOOOOOOO",
"OOOOOOOOOOOOOOOOOOOOOOOOOOOOOOOOOOOOOOOOOOOOOOOOOO"
};
